<svg width="20" height="20" viewBox="0 0 20 20" fill="none" xmlns="http://www.w3.org/2000/svg">
<path d="M16.6666 2.5H7.49992V4.5L9.00825 5.70833C9.10825 5.78333 9.16659 5.90833 9.16659 6.03333V9.58333C9.16659 9.81667 8.98325 10 8.74992 10H5.41659C5.18325 10 4.99992 9.81667 4.99992 9.58333V6.03333C4.99992 5.90833 5.05825 5.78333 5.15825 5.70833L6.66659 4.5V2.5H3.33325V10.8333C3.33325 12.675 4.82492 14.1667 6.66659 14.1667H11.6666C13.5083 14.1667 14.9999 12.675 14.9999 10.8333V8.33333H16.6666C17.5916 8.33333 18.3333 7.58333 18.3333 6.66667V4.16667C18.3333 3.24167 17.5916 2.5 16.6666 2.5ZM16.6666 6.66667H14.9999V4.16667H16.6666V6.66667Z" fill="white"/>
<path d="M16.6666 15.8334H3.33325V17.5H16.6666V15.8334Z" fill="white"/>
</svg>
