<svg width="20" height="20" viewBox="0 0 20 20" fill="none" xmlns="http://www.w3.org/2000/svg">
<g opacity="0.38">
<path d="M13.7499 4.99992V14.5833C13.7499 16.4249 12.2583 17.9166 10.4166 17.9166C8.57492 17.9166 7.08325 16.4249 7.08325 14.5833V4.16658C7.08325 3.01659 8.01659 2.08325 9.16659 2.08325C10.3166 2.08325 11.2499 3.01659 11.2499 4.16658V12.9166C11.2499 13.3749 10.8749 13.7499 10.4166 13.7499C9.95825 13.7499 9.58325 13.3749 9.58325 12.9166V4.99992H8.33325V12.9166C8.33325 14.0666 9.26659 14.9999 10.4166 14.9999C11.5666 14.9999 12.4999 14.0666 12.4999 12.9166V4.16658C12.4999 2.32492 11.0083 0.833252 9.16659 0.833252C7.32492 0.833252 5.83325 2.32492 5.83325 4.16658V14.5833C5.83325 17.1166 7.88325 19.1666 10.4166 19.1666C12.9499 19.1666 14.9999 17.1166 14.9999 14.5833V4.99992H13.7499Z" fill="white"/>
</g>
</svg>
