<svg width="22" height="21" viewBox="0 0 22 21" fill="none" xmlns="http://www.w3.org/2000/svg">
<path d="M20.24 9.75222L12.2222 6.71055V5.21056C12.2222 4.63764 11.6722 4.16889 11 4.16889C10.3278 4.16889 9.77778 3.70014 9.77778 3.12722C9.77778 2.5543 10.3278 2.08555 11 2.08555C11.6722 2.08555 12.2222 2.5543 12.2222 3.12722H14.6667C14.6667 1.21055 12.6378 -0.310279 10.3156 0.0543046C8.87333 0.283471 7.68778 1.27305 7.40667 2.50222C7.04 4.12722 8.14 5.56472 9.77778 6.06472V6.72097L1.76 9.76264C0.684445 10.1585 0 11.0647 0 12.0543V12.0647C0 13.4606 1.32 14.5856 2.95778 14.5856H4.88889V20.8356H17.1111V14.5856H19.0422C20.68 14.5856 22 13.4606 22 12.0647V12.0543C22 11.0647 21.3156 10.1585 20.24 9.75222ZM19.0422 12.5022H17.1111V11.4606H4.88889V12.5022H2.95778C2.67667 12.5022 2.44444 12.3043 2.44444 12.0543C2.44444 11.8772 2.56667 11.721 2.75 11.6585L11 8.53347L19.25 11.6585C19.4333 11.7314 19.5556 11.8876 19.5556 12.0647C19.5556 12.3043 19.3233 12.5022 19.0422 12.5022Z" fill="white"/>
</svg>
