<svg width="208" height="81" viewBox="0 0 208 81" fill="none" xmlns="http://www.w3.org/2000/svg">
<g filter="url(#filter0_d_364_71)">
<path d="M6.11523 70H14.709V53.0811C14.709 49.3481 16.6694 47.8979 19.0059 47.8979C21.2617 47.8979 23.2759 49.1602 23.2759 53.1079V70H31.4937V53.1348C31.4937 49.6436 33.1855 47.8979 35.8174 47.8979C38.1807 47.8979 40.0337 49.3213 40.0337 52.9468V70H48.6543V50.3418C48.6543 44.729 45.3242 40.8887 39.4966 40.8887C34.6089 40.8887 31.6548 43.6011 30.8223 45.9912H30.4731C29.5601 42.9834 26.9551 40.8887 22.5776 40.8887C17.9854 40.8887 15.5952 43.6279 14.897 45.8032H14.4673V41.3184H6.11523V70ZM66.2554 66.5625H66.6313V70H74.7148V50.8789C74.7148 43.7891 69.3438 40.8887 62.4688 40.8887C53.3647 40.8887 50.4912 45.7764 50.3301 50.4492H58.3599C58.4673 48.4888 59.9175 47.146 62.3613 47.146C64.7783 47.146 66.2285 48.4351 66.2285 50.7715V53.1616H59.5952C52.9082 53.1616 49.2827 56.4917 49.2827 61.7285C49.2827 67.1802 53.1499 70.4297 58.7627 70.4297C62.979 70.4297 65.2886 68.5498 66.2554 66.5625ZM61.7168 64.4409C59.7026 64.4409 57.769 63.313 57.769 61.0571C57.769 59.1235 59.2192 57.8345 61.8779 57.8345H66.2285V60.6543C66.2285 62.937 64.1606 64.4409 61.7168 64.4409ZM78.8882 41.3184H74.4839V47.8442H78.6733V61.8359C78.6733 67.8247 81.6274 70.0806 88.9858 70.0806C90.7046 70.0806 92.1011 69.9463 92.7456 69.8389V63.6353C92.4502 63.6621 91.7251 63.689 91.0537 63.689C88.4487 63.689 87.1865 62.8296 87.1865 60.3052V47.8442H92.665V41.3184H87.1865V34.6582H78.8882V41.3184ZM92.4878 56.5454C92.4878 65.3271 97.644 70.5371 105.754 70.5371C112.656 70.5371 117.866 67.1533 118.242 59.8486H110.454C110.239 61.9702 109.084 63.9038 106.157 63.9038C103.069 63.9038 101.162 61.1646 101.162 56.4648V54.4775C101.162 50.1538 103.069 47.4414 106.13 47.4414C108.494 47.4414 110.132 49.375 110.374 51.6846H118.162C118.027 45.481 113.408 40.7812 105.781 40.7812C97.4561 40.7812 92.4878 46.3672 92.4878 54.4507V56.5454ZM119.032 70H127.625V53.6182C127.625 50.1538 129.559 48.0591 132.459 48.0591C134.876 48.0591 137.213 49.375 137.213 53.5107V70H145.807V51.4966C145.807 44.4873 141.859 40.8887 136.139 40.8887C131.305 40.8887 128.807 43.7354 128.001 45.7764H127.625V31.4087H119.032V70ZM176.395 41.3184H171.991V47.8442H176.18V61.8359C176.18 67.8247 179.134 70.0806 186.493 70.0806C188.211 70.0806 189.608 69.9463 190.252 69.8389V63.6353C189.957 63.6621 189.232 63.689 188.561 63.689C185.956 63.689 184.693 62.8296 184.693 60.3052V47.8442H190.172V41.3184H184.693V34.6582H176.395V41.3184ZM191.767 65.7837C191.767 68.4424 193.942 70.6177 196.601 70.6177C199.26 70.6177 201.435 68.4424 201.435 65.7837C201.435 63.125 199.26 60.9497 196.601 60.9497C193.942 60.9497 191.767 63.125 191.767 65.7837Z" fill="url(#paint0_linear_364_71)"/>
</g>
<line x1="137" y1="54.5" x2="177" y2="54.5" stroke="url(#paint1_linear_364_71)" stroke-width="7"/>
<g filter="url(#filter1_d_364_71)">
<path d="M155 71V37" stroke="url(#paint2_linear_364_71)" stroke-width="8"/>
</g>
<g filter="url(#filter2_d_364_71)">
<path d="M153.884 1L162 11.777L153.884 27L146 11.777L153.884 1Z" fill="#79DFFF"/>
</g>
<path d="M154.5 0L155 11.3183V17L146 12.3103L154.5 0Z" fill="url(#paint3_linear_364_71)"/>
<path d="M153.884 16.0404L162 13L153.884 27L146 13L153.884 16.0404Z" fill="url(#paint4_linear_364_71)"/>
<path d="M154.471 16.1453L162 13L154 28L154.471 16.1453Z" fill="#008EBB"/>
<defs>
<filter id="filter0_d_364_71" x="0.115234" y="29.4087" width="207.32" height="51.209" filterUnits="userSpaceOnUse" color-interpolation-filters="sRGB">
<feFlood flood-opacity="0" result="BackgroundImageFix"/>
<feColorMatrix in="SourceAlpha" type="matrix" values="0 0 0 0 0 0 0 0 0 0 0 0 0 0 0 0 0 0 127 0" result="hardAlpha"/>
<feOffset dy="4"/>
<feGaussianBlur stdDeviation="3"/>
<feComposite in2="hardAlpha" operator="out"/>
<feColorMatrix type="matrix" values="0 0 0 0 0 0 0 0 0 0 0 0 0 0 0 0 0 0 0.25 0"/>
<feBlend mode="normal" in2="BackgroundImageFix" result="effect1_dropShadow_364_71"/>
<feBlend mode="normal" in="SourceGraphic" in2="effect1_dropShadow_364_71" result="shape"/>
</filter>
<filter id="filter1_d_364_71" x="147" y="37" width="16" height="42" filterUnits="userSpaceOnUse" color-interpolation-filters="sRGB">
<feFlood flood-opacity="0" result="BackgroundImageFix"/>
<feColorMatrix in="SourceAlpha" type="matrix" values="0 0 0 0 0 0 0 0 0 0 0 0 0 0 0 0 0 0 127 0" result="hardAlpha"/>
<feOffset dy="4"/>
<feGaussianBlur stdDeviation="2"/>
<feComposite in2="hardAlpha" operator="out"/>
<feColorMatrix type="matrix" values="0 0 0 0 0 0 0 0 0 0 0 0 0 0 0 0 0 0 0.25 0"/>
<feBlend mode="normal" in2="BackgroundImageFix" result="effect1_dropShadow_364_71"/>
<feBlend mode="normal" in="SourceGraphic" in2="effect1_dropShadow_364_71" result="shape"/>
</filter>
<filter id="filter2_d_364_71" x="137" y="1" width="34" height="46" filterUnits="userSpaceOnUse" color-interpolation-filters="sRGB">
<feFlood flood-opacity="0" result="BackgroundImageFix"/>
<feColorMatrix in="SourceAlpha" type="matrix" values="0 0 0 0 0 0 0 0 0 0 0 0 0 0 0 0 0 0 127 0" result="hardAlpha"/>
<feOffset dy="11"/>
<feGaussianBlur stdDeviation="4.5"/>
<feColorMatrix type="matrix" values="0 0 0 0 0 0 0 0 0 0 0 0 0 0 0 0 0 0 0.25 0"/>
<feBlend mode="normal" in2="BackgroundImageFix" result="effect1_dropShadow_364_71"/>
<feBlend mode="normal" in="SourceGraphic" in2="effect1_dropShadow_364_71" result="shape"/>
</filter>
<linearGradient id="paint0_linear_364_71" x1="20.4345" y1="17" x2="166.777" y2="76.8383" gradientUnits="userSpaceOnUse">
<stop offset="0.0885417" stop-color="#51FFEA"/>
<stop offset="0.524857" stop-color="#A19FFF"/>
<stop offset="1" stop-color="#DA72FF"/>
</linearGradient>
<linearGradient id="paint1_linear_364_71" x1="157" y1="58" x2="175.667" y2="57.9999" gradientUnits="userSpaceOnUse">
<stop stop-color="#9176F7"/>
<stop offset="1" stop-color="#BF67EB"/>
</linearGradient>
<linearGradient id="paint2_linear_364_71" x1="156.5" y1="67.4478" x2="154.955" y2="37.0023" gradientUnits="userSpaceOnUse">
<stop stop-color="#B072FF"/>
<stop offset="1" stop-color="#D874FE"/>
</linearGradient>
<linearGradient id="paint3_linear_364_71" x1="151.909" y1="3.7427" x2="154.121" y2="18.1706" gradientUnits="userSpaceOnUse">
<stop stop-color="#BEEFFF"/>
<stop offset="1" stop-color="#30B1DA"/>
</linearGradient>
<linearGradient id="paint4_linear_364_71" x1="150.235" y1="12.5534" x2="154.418" y2="26.8779" gradientUnits="userSpaceOnUse">
<stop stop-color="#30B1DA"/>
<stop offset="1" stop-color="#002863"/>
</linearGradient>
</defs>
</svg>
