<svg width="208" height="52" viewBox="0 0 208 52" fill="none" xmlns="http://www.w3.org/2000/svg">
<g filter="url(#filter0_d_132_129)">
<path d="M6.11523 41H14.709V24.0811C14.709 20.3481 16.6694 18.8979 19.0059 18.8979C21.2617 18.8979 23.2759 20.1602 23.2759 24.1079V41H31.4937V24.1348C31.4937 20.6436 33.1855 18.8979 35.8174 18.8979C38.1807 18.8979 40.0337 20.3213 40.0337 23.9468V41H48.6543V21.3418C48.6543 15.729 45.3242 11.8887 39.4966 11.8887C34.6089 11.8887 31.6548 14.6011 30.8223 16.9912H30.4731C29.5601 13.9834 26.9551 11.8887 22.5776 11.8887C17.9854 11.8887 15.5952 14.6279 14.897 16.8032H14.4673V12.3184H6.11523V41ZM66.2554 37.5625H66.6313V41H74.7148V21.8789C74.7148 14.7891 69.3438 11.8887 62.4688 11.8887C53.3647 11.8887 50.4912 16.7764 50.3301 21.4492H58.3599C58.4673 19.4888 59.9175 18.146 62.3613 18.146C64.7783 18.146 66.2285 19.4351 66.2285 21.7715V24.1616H59.5952C52.9082 24.1616 49.2827 27.4917 49.2827 32.7285C49.2827 38.1802 53.1499 41.4297 58.7627 41.4297C62.979 41.4297 65.2886 39.5498 66.2554 37.5625ZM61.7168 35.4409C59.7026 35.4409 57.769 34.313 57.769 32.0571C57.769 30.1235 59.2192 28.8345 61.8779 28.8345H66.2285V31.6543C66.2285 33.937 64.1606 35.4409 61.7168 35.4409ZM78.8882 12.3184H74.4839V18.8442H78.6733V32.8359C78.6733 38.8247 81.6274 41.0806 88.9858 41.0806C90.7046 41.0806 92.1011 40.9463 92.7456 40.8389V34.6353C92.4502 34.6621 91.7251 34.689 91.0537 34.689C88.4487 34.689 87.1865 33.8296 87.1865 31.3052V18.8442H92.665V12.3184H87.1865V5.6582H78.8882V12.3184ZM92.4878 27.5454C92.4878 36.3271 97.644 41.5371 105.754 41.5371C112.656 41.5371 117.866 38.1533 118.242 30.8486H110.454C110.239 32.9702 109.084 34.9038 106.157 34.9038C103.069 34.9038 101.162 32.1646 101.162 27.4648V25.4775C101.162 21.1538 103.069 18.4414 106.13 18.4414C108.494 18.4414 110.132 20.375 110.374 22.6846H118.162C118.027 16.481 113.408 11.7812 105.781 11.7812C97.4561 11.7812 92.4878 17.3672 92.4878 25.4507V27.5454ZM119.032 41H127.625V24.6182C127.625 21.1538 129.559 19.0591 132.459 19.0591C134.876 19.0591 137.213 20.375 137.213 24.5107V41H145.807V22.4966C145.807 15.4873 141.859 11.8887 136.139 11.8887C131.305 11.8887 128.807 14.7354 128.001 16.7764H127.625V2.40869H119.032V41ZM176.395 12.3184H171.991V18.8442H176.18V32.8359C176.18 38.8247 179.134 41.0806 186.493 41.0806C188.211 41.0806 189.608 40.9463 190.252 40.8389V34.6353C189.957 34.6621 189.232 34.689 188.561 34.689C185.956 34.689 184.693 33.8296 184.693 31.3052V18.8442H190.172V12.3184H184.693V5.6582H176.395V12.3184ZM191.767 36.7837C191.767 39.4424 193.942 41.6177 196.601 41.6177C199.26 41.6177 201.435 39.4424 201.435 36.7837C201.435 34.125 199.26 31.9497 196.601 31.9497C193.942 31.9497 191.767 34.125 191.767 36.7837Z" fill="url(#paint0_linear_132_129)"/>
</g>
<defs>
<filter id="filter0_d_132_129" x="0.115234" y="0.408691" width="207.32" height="51.209" filterUnits="userSpaceOnUse" color-interpolation-filters="sRGB">
<feFlood flood-opacity="0" result="BackgroundImageFix"/>
<feColorMatrix in="SourceAlpha" type="matrix" values="0 0 0 0 0 0 0 0 0 0 0 0 0 0 0 0 0 0 127 0" result="hardAlpha"/>
<feOffset dy="4"/>
<feGaussianBlur stdDeviation="3"/>
<feComposite in2="hardAlpha" operator="out"/>
<feColorMatrix type="matrix" values="0 0 0 0 0 0 0 0 0 0 0 0 0 0 0 0 0 0 0.25 0"/>
<feBlend mode="normal" in2="BackgroundImageFix" result="effect1_dropShadow_132_129"/>
<feBlend mode="normal" in="SourceGraphic" in2="effect1_dropShadow_132_129" result="shape"/>
</filter>
<linearGradient id="paint0_linear_132_129" x1="20.4345" y1="-12" x2="168.039" y2="46.5254" gradientUnits="userSpaceOnUse">
<stop offset="0.0885417" stop-color="#51FFEA"/>
<stop offset="0.524857" stop-color="#A19FFF"/>
<stop offset="1" stop-color="#DA72FF"/>
</linearGradient>
</defs>
</svg>
