<svg width="159" height="78" viewBox="0 0 159 78" fill="none" xmlns="http://www.w3.org/2000/svg">
<path d="M2.0874 67H8.50342V52.7837C8.50342 51.8901 8.67188 51.1064 9.00879 50.4326C9.36035 49.7588 9.84375 49.2314 10.459 48.8506C11.0742 48.4697 11.7847 48.2793 12.5903 48.2793C13.7769 48.2793 14.707 48.6309 15.3809 49.334C16.0547 50.0371 16.3916 51.0259 16.3916 52.3003V67H22.5659V52.6738C22.5659 51.7949 22.7344 51.0259 23.0713 50.3667C23.4082 49.7075 23.877 49.1948 24.4775 48.8286C25.0928 48.4624 25.8032 48.2793 26.6089 48.2793C27.854 48.2793 28.8062 48.6455 29.4653 49.3779C30.1245 50.0957 30.4541 51.1357 30.4541 52.498V67H36.8701V50.894C36.8701 49.2974 36.5479 47.9058 35.9033 46.7192C35.2588 45.5327 34.3579 44.6099 33.2007 43.9507C32.0435 43.2915 30.6958 42.9619 29.1577 42.9619C28.0005 42.9619 26.9312 43.1597 25.9497 43.5552C24.9829 43.9507 24.1406 44.5146 23.4229 45.2471C22.7197 45.9648 22.1924 46.8218 21.8408 47.8179H21.709C21.46 46.7778 21.0278 45.8989 20.4126 45.1812C19.812 44.4634 19.0723 43.9141 18.1934 43.5332C17.3145 43.1523 16.3257 42.9619 15.2271 42.9619C13.645 42.9619 12.2681 43.3647 11.0962 44.1704C9.93896 44.9761 9.11865 46.0527 8.63525 47.4004H8.50342V43.4453H2.0874V67ZM44.5693 67.3735C45.6094 67.3735 46.5688 67.2197 47.4478 66.9121C48.3267 66.5898 49.1104 66.1431 49.7988 65.5718C50.502 64.9858 51.0732 64.29 51.5127 63.4844H51.6445V67H58.0605V50.8501C58.0605 49.2681 57.6431 47.8838 56.8081 46.6973C55.9878 45.5107 54.8306 44.5952 53.3364 43.9507C51.8423 43.2915 50.0771 42.9619 48.041 42.9619C45.9756 42.9619 44.1885 43.2842 42.6797 43.9287C41.1855 44.5586 40.0137 45.4375 39.1641 46.5654C38.3291 47.6934 37.853 48.9824 37.7358 50.4326L37.7139 50.6963H43.5806L43.6245 50.4985C43.7856 49.7368 44.2178 49.1069 44.9209 48.6089C45.624 48.1108 46.5762 47.8618 47.7773 47.8618C49.0371 47.8618 49.9966 48.1694 50.6558 48.7847C51.3149 49.3853 51.6445 50.2056 51.6445 51.2456V58.3867C51.6445 59.207 51.4248 59.9468 50.9854 60.606C50.5605 61.2505 49.9673 61.7632 49.2056 62.144C48.4585 62.5103 47.6089 62.6934 46.6567 62.6934C45.5435 62.6934 44.6572 62.4517 43.998 61.9683C43.3389 61.4702 43.0093 60.7891 43.0093 59.9248V59.8809C43.0093 59.0459 43.3315 58.3794 43.9761 57.8813C44.6206 57.3687 45.5581 57.0757 46.7886 57.0024L55.0063 56.4751V52.4761L45.8218 53.0474C42.9067 53.2378 40.6509 53.9482 39.0542 55.1787C37.4575 56.3945 36.6592 58.0718 36.6592 60.2104V60.2544C36.6592 61.6313 36.9888 62.8618 37.6479 63.9458C38.3218 65.0151 39.252 65.8574 40.4385 66.4727C41.625 67.0732 43.002 67.3735 44.5693 67.3735ZM68.1987 67.4834C68.8726 67.4834 69.4658 67.4541 69.9785 67.3955C70.5059 67.3516 70.9453 67.3003 71.2969 67.2417V62.5396C71.1064 62.5688 70.9014 62.5981 70.6816 62.6274C70.4619 62.6421 70.2056 62.6494 69.9126 62.6494C68.9458 62.6494 68.2134 62.437 67.7153 62.0122C67.2319 61.5728 66.9902 60.8037 66.9902 59.7051V48.2793H71.2969V43.4453H66.9902V37.6885H60.5083V43.4453H57.2344V48.2793H60.5083V60.4082C60.5083 62.9277 61.1382 64.7368 62.3979 65.8354C63.6577 66.9341 65.5913 67.4834 68.1987 67.4834ZM81.9185 67.4834C84.0132 67.4834 85.8369 67.0879 87.3896 66.2969C88.957 65.4912 90.1875 64.4072 91.0811 63.0449C91.9746 61.6826 92.4727 60.1445 92.5752 58.4307V58.2988H86.5986L86.5767 58.4966C86.3569 59.6831 85.8516 60.6426 85.0605 61.375C84.2842 62.0928 83.2515 62.4517 81.9624 62.4517C80.9077 62.4517 79.9922 62.1733 79.2158 61.6167C78.4541 61.0454 77.8608 60.2251 77.436 59.1558C77.0259 58.0718 76.8208 56.7607 76.8208 55.2227V55.2007C76.8208 53.7065 77.0259 52.4248 77.436 51.3555C77.8608 50.2715 78.4541 49.4438 79.2158 48.8726C79.9922 48.2866 80.9004 47.9937 81.9404 47.9937C83.2734 47.9937 84.3281 48.3745 85.1045 49.1362C85.8809 49.8833 86.3643 50.8208 86.5547 51.9487L86.5986 52.1465H92.5532V51.9927C92.4653 50.2935 91.9746 48.7627 91.0811 47.4004C90.2021 46.0381 88.979 44.9614 87.4116 44.1704C85.8442 43.3647 83.9912 42.9619 81.8525 42.9619C79.5088 42.9619 77.4653 43.46 75.7222 44.4561C73.9937 45.4375 72.6533 46.8438 71.7012 48.6748C70.7637 50.4912 70.2949 52.6592 70.2949 55.1787V55.2007C70.2949 57.7202 70.7637 59.9028 71.7012 61.7485C72.6387 63.5796 73.979 64.9932 75.7222 65.9893C77.4653 66.9854 79.5308 67.4834 81.9185 67.4834ZM92.4521 67H98.8682V53.5088C98.8682 52.4834 99.0586 51.5825 99.4395 50.8062C99.835 50.0151 100.377 49.3999 101.065 48.9604C101.769 48.5063 102.589 48.2793 103.526 48.2793C104.991 48.2793 106.112 48.748 106.888 49.6855C107.679 50.6084 108.075 51.8901 108.075 53.5308V67H114.491V52.2124C114.491 50.3081 114.154 48.6675 113.48 47.2905C112.821 45.9136 111.876 44.8516 110.646 44.1045C109.415 43.3428 107.943 42.9619 106.229 42.9619C104.471 42.9619 102.977 43.3574 101.747 44.1484C100.531 44.9248 99.6152 46.0454 99 47.5103H98.8682V35.2935H92.4521V67ZM146.791 67.4834C147.464 67.4834 148.058 67.4541 148.57 67.3955C149.098 67.3516 149.537 67.3003 149.889 67.2417V62.5396C149.698 62.5688 149.493 62.5981 149.273 62.6274C149.054 62.6421 148.797 62.6494 148.504 62.6494C147.538 62.6494 146.805 62.437 146.307 62.0122C145.824 61.5728 145.582 60.8037 145.582 59.7051V48.2793H149.889V43.4453H145.582V37.6885H139.1V43.4453H135.826V48.2793H139.1V60.4082C139.1 62.9277 139.73 64.7368 140.99 65.8354C142.25 66.9341 144.183 67.4834 146.791 67.4834ZM153.391 67.3735C154.387 67.3735 155.229 67.0293 155.918 66.3408C156.606 65.6523 156.951 64.8101 156.951 63.814C156.951 62.8179 156.606 61.9756 155.918 61.2871C155.229 60.5986 154.387 60.2544 153.391 60.2544C152.395 60.2544 151.553 60.5986 150.864 61.2871C150.176 61.9756 149.832 62.8179 149.832 63.814C149.832 64.8101 150.176 65.6523 150.864 66.3408C151.553 67.0293 152.395 67.3735 153.391 67.3735Z" fill="white"/>
<line x1="110" y1="53.5" x2="150" y2="53.5" stroke="white" stroke-width="7"/>
<path d="M126 68V38" stroke="white" stroke-width="8"/>
<g filter="url(#filter0_d_176_121)">
<path d="M123.884 1L132 11.777L123.884 27L116 11.777L123.884 1Z" fill="white"/>
</g>
<path d="M124.5 0L125 11.3183V17L116 12.3103L124.5 0Z" fill="white"/>
<path d="M123.884 16.0404L127.942 14.5202L132 11.5L123.884 27L116 11.5L123.884 16.0404Z" fill="white"/>
<path d="M124.471 16.1453L132 12L124 28L124.471 16.1453Z" fill="white"/>
<defs>
<filter id="filter0_d_176_121" x="107" y="1" width="34" height="46" filterUnits="userSpaceOnUse" color-interpolation-filters="sRGB">
<feFlood flood-opacity="0" result="BackgroundImageFix"/>
<feColorMatrix in="SourceAlpha" type="matrix" values="0 0 0 0 0 0 0 0 0 0 0 0 0 0 0 0 0 0 127 0" result="hardAlpha"/>
<feOffset dy="11"/>
<feGaussianBlur stdDeviation="4.5"/>
<feColorMatrix type="matrix" values="0 0 0 0 0 0 0 0 0 0 0 0 0 0 0 0 0 0 0.25 0"/>
<feBlend mode="normal" in2="BackgroundImageFix" result="effect1_dropShadow_176_121"/>
<feBlend mode="normal" in="SourceGraphic" in2="effect1_dropShadow_176_121" result="shape"/>
</filter>
</defs>
</svg>
