<svg width="1717" height="1308" viewBox="0 0 1717 1308" fill="none" xmlns="http://www.w3.org/2000/svg">
<g clip-path="url(#clip0_53_248)">
<rect width="1717" height="1308" fill="url(#paint0_linear_53_248)"/>
<g opacity="0.8" filter="url(#filter0_d_53_248)">
<rect x="216" y="724" width="528" height="548" rx="24" fill="url(#paint1_linear_53_248)" fill-opacity="0.6" shape-rendering="crispEdges"/>
<rect x="216.25" y="724.25" width="527.5" height="547.5" rx="23.75" stroke="white" stroke-opacity="0.08" stroke-width="0.5" shape-rendering="crispEdges"/>
</g>
<g opacity="0.8" filter="url(#filter1_d_53_248)">
<path d="M615.305 898.094C616.927 893.823 621.02 891 625.588 891H854.863C862.335 891 867.633 898.29 865.326 905.397L772.469 1191.4C770.997 1195.93 766.773 1199 762.006 1199H516.945C509.245 1199 503.928 1191.29 506.662 1184.09L615.305 898.094Z" fill="url(#paint2_linear_53_248)" fill-opacity="0.6" shape-rendering="crispEdges"/>
<path d="M615.539 898.183C617.124 894.009 621.124 891.25 625.588 891.25H854.863C862.165 891.25 867.343 898.374 865.088 905.32L772.231 1191.32C770.792 1195.75 766.664 1198.75 762.006 1198.75H516.945C509.42 1198.75 504.224 1191.22 506.896 1184.18L615.539 898.183Z" stroke="white" stroke-opacity="0.08" stroke-width="0.5" shape-rendering="crispEdges"/>
</g>
<g opacity="0.8" filter="url(#filter2_d_53_248)">
<path d="M164.184 838.099C166.877 835.542 170.678 834.515 174.292 835.37L505.013 913.613C512.656 915.421 515.996 924.425 511.382 930.78L307.342 1211.83C304.472 1215.78 299.339 1217.37 294.739 1215.73L-72.1602 1084.6C-79.8796 1081.84 -81.9776 1071.91 -76.0339 1066.27L164.184 838.099Z" fill="url(#paint3_linear_53_248)" fill-opacity="0.9" shape-rendering="crispEdges"/>
<path d="M164.356 838.281C166.988 835.781 170.703 834.778 174.235 835.614L504.956 913.857C512.425 915.623 515.689 924.423 511.18 930.633L307.14 1211.68C304.335 1215.55 299.318 1217.1 294.823 1215.49L-72.0761 1084.37C-79.6201 1081.67 -81.6704 1071.97 -75.8617 1066.45L164.356 838.281Z" stroke="white" stroke-opacity="0.08" stroke-width="0.5" shape-rendering="crispEdges"/>
</g>
<g opacity="0.8" filter="url(#filter3_d_53_248)">
<path d="M1219.31 699.066C1221.66 697.014 1224.77 696.055 1227.86 696.428L1441.19 722.08C1449.57 723.088 1453.74 732.778 1448.7 739.558L1324.17 907.297C1321.63 910.727 1317.33 912.372 1313.14 911.518L1061.77 860.189C1052.85 858.368 1049.87 847.118 1056.73 841.128L1219.31 699.066Z" fill="url(#paint4_linear_53_248)" shape-rendering="crispEdges"/>
<path d="M1219.48 699.254C1221.77 697.249 1224.81 696.312 1227.83 696.676L1441.16 722.328C1449.35 723.314 1453.42 732.783 1448.5 739.409L1323.97 907.148C1321.48 910.5 1317.28 912.108 1313.19 911.273L1061.82 859.944C1053.1 858.164 1050.19 847.171 1056.89 841.317L1219.48 699.254Z" stroke="white" stroke-opacity="0.08" stroke-width="0.5" shape-rendering="crispEdges"/>
</g>
<g opacity="0.5" filter="url(#filter4_ddd_53_248)">
<rect x="730" y="478" width="479" height="466" rx="20" fill="url(#paint5_radial_53_248)"/>
<rect x="730.3" y="478.3" width="478.4" height="465.4" rx="19.7" stroke="url(#paint6_linear_53_248)" stroke-opacity="0.31" stroke-width="0.6"/>
</g>
<g opacity="0.7" filter="url(#filter5_ddd_53_248)">
<rect x="464" y="385" width="421" height="506" rx="20" fill="url(#paint7_radial_53_248)"/>
<rect x="464.3" y="385.3" width="420.4" height="505.4" rx="19.7" stroke="url(#paint8_linear_53_248)" stroke-opacity="0.31" stroke-width="0.6"/>
</g>
<g opacity="0.98" filter="url(#filter6_ddd_53_248)">
<rect x="836" y="175" width="414" height="403" rx="20" fill="url(#paint9_linear_53_248)"/>
<rect x="836.3" y="175.3" width="413.4" height="402.4" rx="19.7" stroke="url(#paint10_linear_53_248)" stroke-opacity="0.31" stroke-width="0.6"/>
</g>
<g opacity="0.6" filter="url(#filter7_dd_53_248)">
<path d="M1517.61 210.545C1519.01 209.345 1521.05 209.26 1522.55 210.339L1672.66 318.592C1674.49 319.911 1674.87 322.479 1673.5 324.268L1520.6 523.989C1520.25 524.438 1520.29 525.07 1520.68 525.476C1521.61 526.431 1520.43 527.926 1519.28 527.252L1303.83 400.45C1301.46 399.057 1301.17 395.749 1303.26 393.963L1517.61 210.545Z" fill="url(#paint11_linear_53_248)" fill-opacity="0.9" shape-rendering="crispEdges"/>
<path d="M1517.77 210.735C1519.09 209.61 1521 209.53 1522.4 210.542L1672.52 318.795C1674.23 320.031 1674.58 322.438 1673.3 324.116L1520.4 523.837C1519.98 524.384 1520.02 525.154 1520.5 525.649C1521.22 526.396 1520.3 527.563 1519.41 527.037L1303.96 400.234C1301.74 398.929 1301.46 395.827 1303.42 394.153L1517.77 210.735Z" stroke="white" stroke-opacity="0.08" stroke-width="0.5" shape-rendering="crispEdges"/>
</g>
<g opacity="0.8" filter="url(#filter8_d_53_248)">
<rect x="-263" y="875" width="958" height="533" rx="11" fill="url(#paint12_linear_53_248)" fill-opacity="0.6" shape-rendering="crispEdges"/>
<rect x="-262.75" y="875.25" width="957.5" height="532.5" rx="10.75" stroke="white" stroke-opacity="0.08" stroke-width="0.5" shape-rendering="crispEdges"/>
</g>
<g opacity="0.5" filter="url(#filter9_d_53_248)">
<path d="M1301.91 1049.78C1303.9 1048.07 1306.45 1047.12 1309.08 1047.12L1615.83 1047.12C1624.74 1047.12 1629.96 1057.16 1624.84 1064.45L1515.63 1219.95C1513.38 1223.15 1509.6 1224.92 1505.7 1224.59L1161.13 1195.34C1151.42 1194.52 1147.5 1182.39 1154.9 1176.04L1301.91 1049.78Z" fill="url(#paint13_linear_53_248)" fill-opacity="0.9" shape-rendering="crispEdges"/>
<path d="M1302.07 1049.97C1304.02 1048.3 1306.51 1047.37 1309.08 1047.37L1615.83 1047.37C1624.54 1047.37 1629.63 1057.18 1624.63 1064.3L1515.43 1219.81C1513.23 1222.94 1509.53 1224.66 1505.72 1224.34L1161.15 1195.09C1151.66 1194.29 1147.83 1182.44 1155.06 1176.23L1302.07 1049.97Z" stroke="white" stroke-opacity="0.08" stroke-width="0.5" shape-rendering="crispEdges"/>
</g>
<g opacity="0.8" filter="url(#filter10_d_53_248)">
<path d="M140.043 583.024C142.545 577.488 149.061 575.028 154.597 577.531L454.304 712.998C458.242 714.778 460.773 718.699 460.773 723.021L460.773 931.805C460.773 937.346 456.652 942.022 451.154 942.717L205.941 973.754C204.657 973.917 203.354 973.851 202.093 973.561L-0.911903 926.839C-7.68053 925.281 -11.3291 917.918 -8.46834 911.589L140.043 583.024Z" fill="url(#paint14_linear_53_248)" shape-rendering="crispEdges"/>
<path d="M140.27 583.127C142.716 577.717 149.084 575.313 154.494 577.758L454.201 713.226C458.05 714.965 460.523 718.798 460.523 723.021L460.523 931.805C460.523 937.22 456.495 941.789 451.123 942.469L205.91 973.506C204.655 973.665 203.382 973.601 202.149 973.317L-0.855837 926.596C-7.47063 925.073 -11.0362 917.877 -8.24053 911.692L140.27 583.127Z" stroke="white" stroke-opacity="0.08" stroke-width="0.5" shape-rendering="crispEdges"/>
</g>
<g opacity="0.8" filter="url(#filter11_d_53_248)">
<path d="M-85.9295 446.832C-87.5243 440.125 -82.628 433.621 -75.7419 433.299L318.757 414.846C325.801 414.516 331.331 420.807 330.102 427.75L282.826 694.886C282.164 698.627 279.618 701.761 276.092 703.177L13.1088 808.752C6.87029 811.257 -0.135732 807.629 -1.6909 801.089L-85.9295 446.832Z" fill="url(#paint15_linear_53_248)" shape-rendering="crispEdges"/>
<path d="M-85.6863 446.774C-87.2448 440.22 -82.4598 433.864 -75.7302 433.549L318.768 415.095C325.652 414.773 331.057 420.921 329.856 427.707L282.579 694.842C281.932 698.498 279.445 701.562 275.999 702.945L13.0157 808.52C6.91894 810.968 0.0721448 807.422 -1.44768 801.031L-85.6863 446.774Z" stroke="white" stroke-opacity="0.08" stroke-width="0.5" shape-rendering="crispEdges"/>
</g>
<g opacity="0.8" filter="url(#filter12_d_53_248)">
<path d="M-100.97 -29.3364C-102.551 -35.9868 -97.7476 -42.454 -90.924 -42.8616L488.82 -77.4949C496.042 -77.9263 501.707 -71.3883 500.251 -64.3015L477.056 48.6349C443.674 211.174 330.145 345.694 175.528 405.916L28.9647 463.001C22.7434 465.424 15.8155 461.791 14.2709 455.295L-100.97 -29.3364Z" fill="url(#paint16_linear_53_248)" shape-rendering="crispEdges"/>
<path d="M-100.726 -29.3943C-102.272 -35.8935 -97.5776 -42.2137 -90.9091 -42.612L488.835 -77.2453C495.893 -77.6669 501.429 -71.2775 500.006 -64.3517L476.811 48.5846C443.447 211.04 329.975 345.492 175.437 405.683L28.874 462.768C22.794 465.136 16.0236 461.585 14.5141 455.238L-100.726 -29.3943Z" stroke="white" stroke-opacity="0.08" stroke-width="0.5" shape-rendering="crispEdges"/>
</g>
<g opacity="0.8" filter="url(#filter13_d_53_248)">
<path d="M1319.86 204.759C1317.49 203.944 1317.11 200.751 1319.22 199.397L1533.21 62.1108C1533.8 61.7297 1534.51 61.5702 1535.21 61.6605L1773.75 92.425C1781.39 93.411 1785.68 101.751 1782.03 108.541L1670.76 315.653C1668.2 320.402 1662.59 322.602 1657.49 320.849L1319.86 204.759Z" fill="url(#paint17_linear_53_248)" shape-rendering="crispEdges"/>
<path d="M1319.94 204.523C1317.77 203.775 1317.42 200.849 1319.35 199.607L1533.35 62.3212C1533.89 61.9718 1534.54 61.8257 1535.18 61.9084L1773.72 92.673C1781.19 93.6366 1785.38 101.787 1781.81 108.422L1670.54 315.535C1668.04 320.176 1662.55 322.326 1657.57 320.613L1319.94 204.523Z" stroke="white" stroke-opacity="0.08" stroke-width="0.5" shape-rendering="crispEdges"/>
</g>
<g opacity="0.8" filter="url(#filter14_dd_53_248)">
<path d="M1401.04 676.024C1403.54 670.488 1410.06 668.028 1415.6 670.531L1715.3 805.998C1719.24 807.778 1721.77 811.699 1721.77 816.021L1721.77 1024.8C1721.77 1030.35 1717.65 1035.02 1712.15 1035.72L1466.94 1066.75C1465.66 1066.92 1464.35 1066.85 1463.09 1066.56L1260.09 1019.84C1253.32 1018.28 1249.67 1010.92 1252.53 1004.59L1401.04 676.024Z" fill="url(#paint18_linear_53_248)" shape-rendering="crispEdges"/>
<path d="M1401.27 676.127C1403.72 670.717 1410.08 668.313 1415.49 670.758L1715.2 806.226C1719.05 807.965 1721.52 811.798 1721.52 816.021L1721.52 1024.8C1721.52 1030.22 1717.5 1034.79 1712.12 1035.47L1466.91 1066.51C1465.65 1066.67 1464.38 1066.6 1463.15 1066.32L1260.14 1019.6C1253.53 1018.07 1249.96 1010.88 1252.76 1004.69L1401.27 676.127Z" stroke="white" stroke-opacity="0.08" stroke-width="0.5" shape-rendering="crispEdges"/>
</g>
<g opacity="0.8" filter="url(#filter15_ddd_53_248)">
<path d="M57.7639 366.966C60.6403 362.905 65.8853 361.28 70.5536 363.006L255.016 431.169C260.986 433.376 263.844 440.173 261.243 445.982L201.766 578.83C199.395 584.125 193.319 586.669 187.882 584.641L-23.6035 505.774C-30.3696 503.25 -32.9102 495.003 -28.7368 489.11L57.7639 366.966Z" fill="url(#paint19_linear_53_248)" fill-opacity="0.69" shape-rendering="crispEdges"/>
<path d="M57.968 367.111C60.7789 363.142 65.9047 361.554 70.467 363.24L254.929 431.404C260.764 433.56 263.557 440.203 261.015 445.88L201.537 578.727C199.22 583.903 193.282 586.388 187.97 584.407L-23.5162 505.539C-30.1284 503.073 -32.6114 495.013 -28.5328 489.254L57.968 367.111Z" stroke="white" stroke-opacity="0.08" stroke-width="0.5" shape-rendering="crispEdges"/>
</g>
<g opacity="0.8" filter="url(#filter16_ddd_53_248)">
<path d="M1164.76 -20.0337C1167.64 -24.0952 1172.89 -25.7195 1177.55 -23.9945L1362.02 44.1694C1367.99 46.3756 1370.84 53.1731 1368.24 58.9824L1308.77 191.83C1306.39 197.125 1300.32 199.669 1294.88 197.641L1083.4 118.774C1076.63 116.25 1074.09 108.003 1078.26 102.11L1164.76 -20.0337Z" fill="url(#paint20_linear_53_248)" fill-opacity="0.69" shape-rendering="crispEdges"/>
<path d="M1164.97 -19.8892C1167.78 -23.8584 1172.9 -25.4458 1177.47 -23.7599L1361.93 44.4039C1367.76 46.56 1370.56 53.203 1368.01 58.8802L1308.54 191.727C1306.22 196.903 1300.28 199.388 1294.97 197.407L1083.48 118.539C1076.87 116.073 1074.39 108.013 1078.47 102.254L1164.97 -19.8892Z" stroke="white" stroke-opacity="0.08" stroke-width="0.5" shape-rendering="crispEdges"/>
</g>
</g>
<defs>
<filter id="filter0_d_53_248" x="216" y="724" width="645" height="693" filterUnits="userSpaceOnUse" color-interpolation-filters="sRGB">
<feFlood flood-opacity="0" result="BackgroundImageFix"/>
<feColorMatrix in="SourceAlpha" type="matrix" values="0 0 0 0 0 0 0 0 0 0 0 0 0 0 0 0 0 0 127 0" result="hardAlpha"/>
<feOffset dx="76" dy="104"/>
<feGaussianBlur stdDeviation="20.5"/>
<feComposite in2="hardAlpha" operator="out"/>
<feColorMatrix type="matrix" values="0 0 0 0 0 0 0 0 0 0 0 0 0 0 0 0 0 0 0.11 0"/>
<feBlend mode="normal" in2="BackgroundImageFix" result="effect1_dropShadow_53_248"/>
<feBlend mode="normal" in="SourceGraphic" in2="effect1_dropShadow_53_248" result="shape"/>
</filter>
<filter id="filter1_d_53_248" x="505.935" y="891" width="476.936" height="453" filterUnits="userSpaceOnUse" color-interpolation-filters="sRGB">
<feFlood flood-opacity="0" result="BackgroundImageFix"/>
<feColorMatrix in="SourceAlpha" type="matrix" values="0 0 0 0 0 0 0 0 0 0 0 0 0 0 0 0 0 0 127 0" result="hardAlpha"/>
<feOffset dx="76" dy="104"/>
<feGaussianBlur stdDeviation="20.5"/>
<feComposite in2="hardAlpha" operator="out"/>
<feColorMatrix type="matrix" values="0 0 0 0 0 0 0 0 0 0 0 0 0 0 0 0 0 0 0.11 0"/>
<feBlend mode="normal" in2="BackgroundImageFix" result="effect1_dropShadow_53_248"/>
<feBlend mode="normal" in="SourceGraphic" in2="effect1_dropShadow_53_248" result="shape"/>
</filter>
<filter id="filter2_d_53_248" x="-79.4624" y="835.075" width="709.951" height="526.294" filterUnits="userSpaceOnUse" color-interpolation-filters="sRGB">
<feFlood flood-opacity="0" result="BackgroundImageFix"/>
<feColorMatrix in="SourceAlpha" type="matrix" values="0 0 0 0 0 0 0 0 0 0 0 0 0 0 0 0 0 0 127 0" result="hardAlpha"/>
<feOffset dx="76" dy="104"/>
<feGaussianBlur stdDeviation="20.5"/>
<feComposite in2="hardAlpha" operator="out"/>
<feColorMatrix type="matrix" values="0 0 0 0 0 0 0 0 0 0 0 0 0 0 0 0 0 0 0.11 0"/>
<feBlend mode="normal" in2="BackgroundImageFix" result="effect1_dropShadow_53_248"/>
<feBlend mode="normal" in="SourceGraphic" in2="effect1_dropShadow_53_248" result="shape"/>
</filter>
<filter id="filter3_d_53_248" x="1021.96" y="696.349" width="537.927" height="426.392" filterUnits="userSpaceOnUse" color-interpolation-filters="sRGB">
<feFlood flood-opacity="0" result="BackgroundImageFix"/>
<feColorMatrix in="SourceAlpha" type="matrix" values="0 0 0 0 0 0 0 0 0 0 0 0 0 0 0 0 0 0 127 0" result="hardAlpha"/>
<feOffset dx="39" dy="141"/>
<feGaussianBlur stdDeviation="35"/>
<feComposite in2="hardAlpha" operator="out"/>
<feColorMatrix type="matrix" values="0 0 0 0 0 0 0 0 0 0 0 0 0 0 0 0 0 0 0.53 0"/>
<feBlend mode="normal" in2="BackgroundImageFix" result="effect1_dropShadow_53_248"/>
<feBlend mode="normal" in="SourceGraphic" in2="effect1_dropShadow_53_248" result="shape"/>
</filter>
<filter id="filter4_ddd_53_248" x="699" y="466" width="615" height="613" filterUnits="userSpaceOnUse" color-interpolation-filters="sRGB">
<feFlood flood-opacity="0" result="BackgroundImageFix"/>
<feColorMatrix in="SourceAlpha" type="matrix" values="0 0 0 0 0 0 0 0 0 0 0 0 0 0 0 0 0 0 127 0" result="hardAlpha"/>
<feMorphology radius="25" operator="erode" in="SourceAlpha" result="effect1_dropShadow_53_248"/>
<feOffset dy="111"/>
<feGaussianBlur stdDeviation="15"/>
<feComposite in2="hardAlpha" operator="out"/>
<feColorMatrix type="matrix" values="0 0 0 0 0 0 0 0 0 0 0 0 0 0 0 0 0 0 0.25 0"/>
<feBlend mode="normal" in2="BackgroundImageFix" result="effect1_dropShadow_53_248"/>
<feColorMatrix in="SourceAlpha" type="matrix" values="0 0 0 0 0 0 0 0 0 0 0 0 0 0 0 0 0 0 127 0" result="hardAlpha"/>
<feOffset dx="58" dy="88"/>
<feGaussianBlur stdDeviation="23.5"/>
<feComposite in2="hardAlpha" operator="out"/>
<feColorMatrix type="matrix" values="0 0 0 0 0 0 0 0 0 0 0 0 0 0 0 0 0 0 0.25 0"/>
<feBlend mode="normal" in2="effect1_dropShadow_53_248" result="effect2_dropShadow_53_248"/>
<feColorMatrix in="SourceAlpha" type="matrix" values="0 0 0 0 0 0 0 0 0 0 0 0 0 0 0 0 0 0 127 0" result="hardAlpha"/>
<feOffset dy="19"/>
<feGaussianBlur stdDeviation="15.5"/>
<feComposite in2="hardAlpha" operator="out"/>
<feColorMatrix type="matrix" values="0 0 0 0 0.325 0 0 0 0 1 0 0 0 0 1 0 0 0 0.27 0"/>
<feBlend mode="normal" in2="effect2_dropShadow_53_248" result="effect3_dropShadow_53_248"/>
<feBlend mode="normal" in="SourceGraphic" in2="effect3_dropShadow_53_248" result="shape"/>
</filter>
<filter id="filter5_ddd_53_248" x="426" y="351" width="564" height="675" filterUnits="userSpaceOnUse" color-interpolation-filters="sRGB">
<feFlood flood-opacity="0" result="BackgroundImageFix"/>
<feColorMatrix in="SourceAlpha" type="matrix" values="0 0 0 0 0 0 0 0 0 0 0 0 0 0 0 0 0 0 127 0" result="hardAlpha"/>
<feMorphology radius="25" operator="erode" in="SourceAlpha" result="effect1_dropShadow_53_248"/>
<feOffset dy="111"/>
<feGaussianBlur stdDeviation="15"/>
<feComposite in2="hardAlpha" operator="out"/>
<feColorMatrix type="matrix" values="0 0 0 0 0 0 0 0 0 0 0 0 0 0 0 0 0 0 0.25 0"/>
<feBlend mode="normal" in2="BackgroundImageFix" result="effect1_dropShadow_53_248"/>
<feColorMatrix in="SourceAlpha" type="matrix" values="0 0 0 0 0 0 0 0 0 0 0 0 0 0 0 0 0 0 127 0" result="hardAlpha"/>
<feOffset dx="58" dy="88"/>
<feGaussianBlur stdDeviation="23.5"/>
<feComposite in2="hardAlpha" operator="out"/>
<feColorMatrix type="matrix" values="0 0 0 0 0 0 0 0 0 0 0 0 0 0 0 0 0 0 0.25 0"/>
<feBlend mode="normal" in2="effect1_dropShadow_53_248" result="effect2_dropShadow_53_248"/>
<feColorMatrix in="SourceAlpha" type="matrix" values="0 0 0 0 0 0 0 0 0 0 0 0 0 0 0 0 0 0 127 0" result="hardAlpha"/>
<feOffset dy="4"/>
<feGaussianBlur stdDeviation="19"/>
<feComposite in2="hardAlpha" operator="out"/>
<feColorMatrix type="matrix" values="0 0 0 0 0.325 0 0 0 0 1 0 0 0 0 1 0 0 0 0.45 0"/>
<feBlend mode="normal" in2="effect2_dropShadow_53_248" result="effect3_dropShadow_53_248"/>
<feBlend mode="normal" in="SourceGraphic" in2="effect3_dropShadow_53_248" result="shape"/>
</filter>
<filter id="filter6_ddd_53_248" x="796" y="115" width="540" height="579" filterUnits="userSpaceOnUse" color-interpolation-filters="sRGB">
<feFlood flood-opacity="0" result="BackgroundImageFix"/>
<feColorMatrix in="SourceAlpha" type="matrix" values="0 0 0 0 0 0 0 0 0 0 0 0 0 0 0 0 0 0 127 0" result="hardAlpha"/>
<feMorphology radius="25" operator="erode" in="SourceAlpha" result="effect1_dropShadow_53_248"/>
<feOffset dy="111"/>
<feGaussianBlur stdDeviation="15"/>
<feComposite in2="hardAlpha" operator="out"/>
<feColorMatrix type="matrix" values="0 0 0 0 0 0 0 0 0 0 0 0 0 0 0 0 0 0 0.25 0"/>
<feBlend mode="normal" in2="BackgroundImageFix" result="effect1_dropShadow_53_248"/>
<feColorMatrix in="SourceAlpha" type="matrix" values="0 0 0 0 0 0 0 0 0 0 0 0 0 0 0 0 0 0 127 0" result="hardAlpha"/>
<feOffset dx="32" dy="54"/>
<feGaussianBlur stdDeviation="27"/>
<feComposite in2="hardAlpha" operator="out"/>
<feColorMatrix type="matrix" values="0 0 0 0 0 0 0 0 0 0 0 0 0 0 0 0 0 0 0.32 0"/>
<feBlend mode="normal" in2="effect1_dropShadow_53_248" result="effect2_dropShadow_53_248"/>
<feColorMatrix in="SourceAlpha" type="matrix" values="0 0 0 0 0 0 0 0 0 0 0 0 0 0 0 0 0 0 127 0" result="hardAlpha"/>
<feOffset dy="-20"/>
<feGaussianBlur stdDeviation="20"/>
<feComposite in2="hardAlpha" operator="out"/>
<feColorMatrix type="matrix" values="0 0 0 0 0.909804 0 0 0 0 0.282353 0 0 0 0 0.788235 0 0 0 0.28 0"/>
<feBlend mode="normal" in2="effect2_dropShadow_53_248" result="effect3_dropShadow_53_248"/>
<feBlend mode="normal" in="SourceGraphic" in2="effect3_dropShadow_53_248" result="shape"/>
</filter>
<filter id="filter7_dd_53_248" x="1278.86" y="209.584" width="512.463" height="507.837" filterUnits="userSpaceOnUse" color-interpolation-filters="sRGB">
<feFlood flood-opacity="0" result="BackgroundImageFix"/>
<feColorMatrix in="SourceAlpha" type="matrix" values="0 0 0 0 0 0 0 0 0 0 0 0 0 0 0 0 0 0 127 0" result="hardAlpha"/>
<feOffset dx="76" dy="104"/>
<feGaussianBlur stdDeviation="20.5"/>
<feComposite in2="hardAlpha" operator="out"/>
<feColorMatrix type="matrix" values="0 0 0 0 0 0 0 0 0 0 0 0 0 0 0 0 0 0 0.11 0"/>
<feBlend mode="normal" in2="BackgroundImageFix" result="effect1_dropShadow_53_248"/>
<feColorMatrix in="SourceAlpha" type="matrix" values="0 0 0 0 0 0 0 0 0 0 0 0 0 0 0 0 0 0 127 0" result="hardAlpha"/>
<feOffset dy="167"/>
<feGaussianBlur stdDeviation="11.5"/>
<feComposite in2="hardAlpha" operator="out"/>
<feColorMatrix type="matrix" values="0 0 0 0 0 0 0 0 0 0 0 0 0 0 0 0 0 0 0.25 0"/>
<feBlend mode="normal" in2="effect1_dropShadow_53_248" result="effect2_dropShadow_53_248"/>
<feBlend mode="normal" in="SourceGraphic" in2="effect2_dropShadow_53_248" result="shape"/>
</filter>
<filter id="filter8_d_53_248" x="-263" y="875" width="1075" height="678" filterUnits="userSpaceOnUse" color-interpolation-filters="sRGB">
<feFlood flood-opacity="0" result="BackgroundImageFix"/>
<feColorMatrix in="SourceAlpha" type="matrix" values="0 0 0 0 0 0 0 0 0 0 0 0 0 0 0 0 0 0 127 0" result="hardAlpha"/>
<feOffset dx="76" dy="104"/>
<feGaussianBlur stdDeviation="20.5"/>
<feComposite in2="hardAlpha" operator="out"/>
<feColorMatrix type="matrix" values="0 0 0 0 0 0 0 0 0 0 0 0 0 0 0 0 0 0 0.11 0"/>
<feBlend mode="normal" in2="BackgroundImageFix" result="effect1_dropShadow_53_248"/>
<feBlend mode="normal" in="SourceGraphic" in2="effect1_dropShadow_53_248" result="shape"/>
</filter>
<filter id="filter9_d_53_248" x="1138.05" y="1047.12" width="501.805" height="285.505" filterUnits="userSpaceOnUse" color-interpolation-filters="sRGB">
<feFlood flood-opacity="0" result="BackgroundImageFix"/>
<feColorMatrix in="SourceAlpha" type="matrix" values="0 0 0 0 0 0 0 0 0 0 0 0 0 0 0 0 0 0 127 0" result="hardAlpha"/>
<feOffset dy="95"/>
<feGaussianBlur stdDeviation="6.5"/>
<feComposite in2="hardAlpha" operator="out"/>
<feColorMatrix type="matrix" values="0 0 0 0 0 0 0 0 0 0 0 0 0 0 0 0 0 0 0.25 0"/>
<feBlend mode="normal" in2="BackgroundImageFix" result="effect1_dropShadow_53_248"/>
<feBlend mode="normal" in="SourceGraphic" in2="effect1_dropShadow_53_248" result="shape"/>
</filter>
<filter id="filter10_d_53_248" x="-11.4507" y="576.552" width="552.224" height="542.29" filterUnits="userSpaceOnUse" color-interpolation-filters="sRGB">
<feFlood flood-opacity="0" result="BackgroundImageFix"/>
<feColorMatrix in="SourceAlpha" type="matrix" values="0 0 0 0 0 0 0 0 0 0 0 0 0 0 0 0 0 0 127 0" result="hardAlpha"/>
<feOffset dx="39" dy="104"/>
<feGaussianBlur stdDeviation="20.5"/>
<feComposite in2="hardAlpha" operator="out"/>
<feColorMatrix type="matrix" values="0 0 0 0 0 0 0 0 0 0 0 0 0 0 0 0 0 0 0.36 0"/>
<feBlend mode="normal" in2="BackgroundImageFix" result="effect1_dropShadow_53_248"/>
<feBlend mode="normal" in="SourceGraphic" in2="effect1_dropShadow_53_248" result="shape"/>
</filter>
<filter id="filter11_d_53_248" x="-88.2324" y="414.833" width="498.507" height="539.716" filterUnits="userSpaceOnUse" color-interpolation-filters="sRGB">
<feFlood flood-opacity="0" result="BackgroundImageFix"/>
<feColorMatrix in="SourceAlpha" type="matrix" values="0 0 0 0 0 0 0 0 0 0 0 0 0 0 0 0 0 0 127 0" result="hardAlpha"/>
<feOffset dx="39" dy="104"/>
<feGaussianBlur stdDeviation="20.5"/>
<feComposite in2="hardAlpha" operator="out"/>
<feColorMatrix type="matrix" values="0 0 0 0 0 0 0 0 0 0 0 0 0 0 0 0 0 0 0.36 0"/>
<feBlend mode="normal" in2="BackgroundImageFix" result="effect1_dropShadow_53_248"/>
<feBlend mode="normal" in="SourceGraphic" in2="effect1_dropShadow_53_248" result="shape"/>
</filter>
<filter id="filter12_d_53_248" x="-103.272" y="-77.5151" width="683.753" height="686.271" filterUnits="userSpaceOnUse" color-interpolation-filters="sRGB">
<feFlood flood-opacity="0" result="BackgroundImageFix"/>
<feColorMatrix in="SourceAlpha" type="matrix" values="0 0 0 0 0 0 0 0 0 0 0 0 0 0 0 0 0 0 127 0" result="hardAlpha"/>
<feOffset dx="39" dy="104"/>
<feGaussianBlur stdDeviation="20.5"/>
<feComposite in2="hardAlpha" operator="out"/>
<feColorMatrix type="matrix" values="0 0 0 0 0 0 0 0 0 0 0 0 0 0 0 0 0 0 0.36 0"/>
<feBlend mode="normal" in2="BackgroundImageFix" result="effect1_dropShadow_53_248"/>
<feBlend mode="normal" in="SourceGraphic" in2="effect1_dropShadow_53_248" result="shape"/>
</filter>
<filter id="filter13_d_53_248" x="1315.84" y="61.6359" width="547.515" height="404.813" filterUnits="userSpaceOnUse" color-interpolation-filters="sRGB">
<feFlood flood-opacity="0" result="BackgroundImageFix"/>
<feColorMatrix in="SourceAlpha" type="matrix" values="0 0 0 0 0 0 0 0 0 0 0 0 0 0 0 0 0 0 127 0" result="hardAlpha"/>
<feOffset dx="39" dy="104"/>
<feGaussianBlur stdDeviation="20.5"/>
<feComposite in2="hardAlpha" operator="out"/>
<feColorMatrix type="matrix" values="0 0 0 0 0 0 0 0 0 0 0 0 0 0 0 0 0 0 0.36 0"/>
<feBlend mode="normal" in2="BackgroundImageFix" result="effect1_dropShadow_53_248"/>
<feBlend mode="normal" in="SourceGraphic" in2="effect1_dropShadow_53_248" result="shape"/>
</filter>
<filter id="filter14_dd_53_248" x="1221.55" y="669.552" width="580.224" height="542.29" filterUnits="userSpaceOnUse" color-interpolation-filters="sRGB">
<feFlood flood-opacity="0" result="BackgroundImageFix"/>
<feColorMatrix in="SourceAlpha" type="matrix" values="0 0 0 0 0 0 0 0 0 0 0 0 0 0 0 0 0 0 127 0" result="hardAlpha"/>
<feOffset dx="39" dy="104"/>
<feGaussianBlur stdDeviation="20.5"/>
<feComposite in2="hardAlpha" operator="out"/>
<feColorMatrix type="matrix" values="0 0 0 0 0 0 0 0 0 0 0 0 0 0 0 0 0 0 0.36 0"/>
<feBlend mode="normal" in2="BackgroundImageFix" result="effect1_dropShadow_53_248"/>
<feColorMatrix in="SourceAlpha" type="matrix" values="0 0 0 0 0 0 0 0 0 0 0 0 0 0 0 0 0 0 127 0" result="hardAlpha"/>
<feOffset dy="110"/>
<feGaussianBlur stdDeviation="15"/>
<feComposite in2="hardAlpha" operator="out"/>
<feColorMatrix type="matrix" values="0 0 0 0 0 0 0 0 0 0 0 0 0 0 0 0 0 0 0.25 0"/>
<feBlend mode="normal" in2="effect1_dropShadow_53_248" result="effect2_dropShadow_53_248"/>
<feBlend mode="normal" in="SourceGraphic" in2="effect2_dropShadow_53_248" result="shape"/>
</filter>
<filter id="filter15_ddd_53_248" x="-57.7644" y="362.323" width="436.971" height="398.014" filterUnits="userSpaceOnUse" color-interpolation-filters="sRGB">
<feFlood flood-opacity="0" result="BackgroundImageFix"/>
<feColorMatrix in="SourceAlpha" type="matrix" values="0 0 0 0 0 0 0 0 0 0 0 0 0 0 0 0 0 0 127 0" result="hardAlpha"/>
<feOffset dx="76" dy="104"/>
<feGaussianBlur stdDeviation="20.5"/>
<feComposite in2="hardAlpha" operator="out"/>
<feColorMatrix type="matrix" values="0 0 0 0 0 0 0 0 0 0 0 0 0 0 0 0 0 0 0.11 0"/>
<feBlend mode="normal" in2="BackgroundImageFix" result="effect1_dropShadow_53_248"/>
<feColorMatrix in="SourceAlpha" type="matrix" values="0 0 0 0 0 0 0 0 0 0 0 0 0 0 0 0 0 0 127 0" result="hardAlpha"/>
<feOffset dx="13" dy="137"/>
<feGaussianBlur stdDeviation="14.5"/>
<feComposite in2="hardAlpha" operator="out"/>
<feColorMatrix type="matrix" values="0 0 0 0 0 0 0 0 0 0 0 0 0 0 0 0 0 0 0.19 0"/>
<feBlend mode="normal" in2="effect1_dropShadow_53_248" result="effect2_dropShadow_53_248"/>
<feColorMatrix in="SourceAlpha" type="matrix" values="0 0 0 0 0 0 0 0 0 0 0 0 0 0 0 0 0 0 127 0" result="hardAlpha"/>
<feOffset dy="148"/>
<feGaussianBlur stdDeviation="13.5"/>
<feComposite in2="hardAlpha" operator="out"/>
<feColorMatrix type="matrix" values="0 0 0 0 0 0 0 0 0 0 0 0 0 0 0 0 0 0 0.25 0"/>
<feBlend mode="normal" in2="effect2_dropShadow_53_248" result="effect3_dropShadow_53_248"/>
<feBlend mode="normal" in="SourceGraphic" in2="effect3_dropShadow_53_248" result="shape"/>
</filter>
<filter id="filter16_ddd_53_248" x="1049.24" y="-24.6773" width="436.971" height="398.014" filterUnits="userSpaceOnUse" color-interpolation-filters="sRGB">
<feFlood flood-opacity="0" result="BackgroundImageFix"/>
<feColorMatrix in="SourceAlpha" type="matrix" values="0 0 0 0 0 0 0 0 0 0 0 0 0 0 0 0 0 0 127 0" result="hardAlpha"/>
<feOffset dx="76" dy="104"/>
<feGaussianBlur stdDeviation="20.5"/>
<feComposite in2="hardAlpha" operator="out"/>
<feColorMatrix type="matrix" values="0 0 0 0 0 0 0 0 0 0 0 0 0 0 0 0 0 0 0.11 0"/>
<feBlend mode="normal" in2="BackgroundImageFix" result="effect1_dropShadow_53_248"/>
<feColorMatrix in="SourceAlpha" type="matrix" values="0 0 0 0 0 0 0 0 0 0 0 0 0 0 0 0 0 0 127 0" result="hardAlpha"/>
<feOffset dx="13" dy="137"/>
<feGaussianBlur stdDeviation="14.5"/>
<feComposite in2="hardAlpha" operator="out"/>
<feColorMatrix type="matrix" values="0 0 0 0 0 0 0 0 0 0 0 0 0 0 0 0 0 0 0.19 0"/>
<feBlend mode="normal" in2="effect1_dropShadow_53_248" result="effect2_dropShadow_53_248"/>
<feColorMatrix in="SourceAlpha" type="matrix" values="0 0 0 0 0 0 0 0 0 0 0 0 0 0 0 0 0 0 127 0" result="hardAlpha"/>
<feOffset dy="148"/>
<feGaussianBlur stdDeviation="13.5"/>
<feComposite in2="hardAlpha" operator="out"/>
<feColorMatrix type="matrix" values="0 0 0 0 0 0 0 0 0 0 0 0 0 0 0 0 0 0 0.25 0"/>
<feBlend mode="normal" in2="effect2_dropShadow_53_248" result="effect3_dropShadow_53_248"/>
<feBlend mode="normal" in="SourceGraphic" in2="effect3_dropShadow_53_248" result="shape"/>
</filter>
<linearGradient id="paint0_linear_53_248" x1="190.778" y1="-25.3726" x2="1079.64" y2="1386.17" gradientUnits="userSpaceOnUse">
<stop offset="0.0880825" stop-color="#101214"/>
<stop offset="0.271356" stop-color="#131516"/>
<stop offset="0.527904" stop-color="#16161A"/>
<stop offset="0.76249" stop-color="#101214"/>
<stop offset="0.976389" stop-color="#1D1D23"/>
</linearGradient>
<linearGradient id="paint1_linear_53_248" x1="281.587" y1="949.677" x2="687.138" y2="1032.25" gradientUnits="userSpaceOnUse">
<stop stop-color="#5383FF" stop-opacity="0.38"/>
<stop offset="1" stop-color="#C4C4C4" stop-opacity="0"/>
</linearGradient>
<linearGradient id="paint2_linear_53_248" x1="531.106" y1="876.939" x2="800.757" y2="912.633" gradientUnits="userSpaceOnUse">
<stop stop-color="#5383FF" stop-opacity="0.38"/>
<stop offset="1" stop-color="#C4C4C4" stop-opacity="0"/>
</linearGradient>
<linearGradient id="paint3_linear_53_248" x1="55.736" y1="894.05" x2="359.365" y2="1132.27" gradientUnits="userSpaceOnUse">
<stop stop-color="#FFB9F1" stop-opacity="0.46"/>
<stop offset="1" stop-color="#C4C4C4" stop-opacity="0"/>
</linearGradient>
<linearGradient id="paint4_linear_53_248" x1="1172.55" y1="667.149" x2="1395.62" y2="823.962" gradientUnits="userSpaceOnUse">
<stop stop-color="#7A6DFF" stop-opacity="0.48"/>
<stop offset="1" stop-color="#C4C4C4" stop-opacity="0"/>
</linearGradient>
<radialGradient id="paint5_radial_53_248" cx="0" cy="0" r="1" gradientUnits="userSpaceOnUse" gradientTransform="translate(779.493 498.721) rotate(43.8778) scale(642.424 553.803)">
<stop stop-color="#FF95EA"/>
<stop offset="0.317419" stop-color="#A189FF"/>
<stop offset="0.776042" stop-color="#5B41FF"/>
<stop offset="0.925576" stop-color="#5CFFF5"/>
</radialGradient>
<linearGradient id="paint6_linear_53_248" x1="969.5" y1="478" x2="969.5" y2="944" gradientUnits="userSpaceOnUse">
<stop stop-color="#D5D1FF"/>
<stop offset="1" stop-color="#D5D1FF" stop-opacity="0"/>
</linearGradient>
<radialGradient id="paint7_radial_53_248" cx="0" cy="0" r="1" gradientUnits="userSpaceOnUse" gradientTransform="translate(507.5 407.5) rotate(49.91) scale(631.998 537.245)">
<stop stop-color="#53FFFF"/>
<stop offset="0.317419" stop-color="#5316FF"/>
<stop offset="0.776042" stop-color="#41D1FF"/>
<stop offset="0.925576" stop-color="#875CFF"/>
</radialGradient>
<linearGradient id="paint8_linear_53_248" x1="674.5" y1="385" x2="674.5" y2="891" gradientUnits="userSpaceOnUse">
<stop stop-color="#D5D1FF"/>
<stop offset="1" stop-color="#D5D1FF" stop-opacity="0"/>
</linearGradient>
<linearGradient id="paint9_linear_53_248" x1="826.875" y1="175" x2="1190.41" y2="646.333" gradientUnits="userSpaceOnUse">
<stop stop-color="#FB5BDC"/>
<stop offset="0.4374" stop-color="#4A3FC0"/>
<stop offset="0.561834" stop-color="#32267C"/>
<stop offset="0.837059" stop-color="#9E32F2"/>
<stop offset="0.965522" stop-color="#31D9D9"/>
</linearGradient>
<linearGradient id="paint10_linear_53_248" x1="1098.56" y1="265.058" x2="1067.58" y2="580.415" gradientUnits="userSpaceOnUse">
<stop stop-color="#D5D1FF"/>
<stop offset="1" stop-color="#D5D1FF" stop-opacity="0"/>
</linearGradient>
<linearGradient id="paint11_linear_53_248" x1="1459" y1="350.753" x2="1707.89" y2="459.103" gradientUnits="userSpaceOnUse">
<stop stop-color="#B9C4FF" stop-opacity="0.46"/>
<stop offset="1" stop-color="#C4C4C4" stop-opacity="0"/>
</linearGradient>
<linearGradient id="paint12_linear_53_248" x1="-144" y1="1094.5" x2="525.721" y2="1348.87" gradientUnits="userSpaceOnUse">
<stop stop-color="#5383FF" stop-opacity="0.38"/>
<stop offset="1" stop-color="#C4C4C4" stop-opacity="0"/>
</linearGradient>
<linearGradient id="paint13_linear_53_248" x1="1236.76" y1="1168.66" x2="1672.38" y2="1178.31" gradientUnits="userSpaceOnUse">
<stop offset="0.00738834" stop-color="#FFB9F1" stop-opacity="0.46"/>
<stop offset="1" stop-color="#C4C4C4" stop-opacity="0"/>
</linearGradient>
<linearGradient id="paint14_linear_53_248" x1="118.547" y1="735.231" x2="341.619" y2="892.044" gradientUnits="userSpaceOnUse">
<stop stop-color="#7A6DFF" stop-opacity="0.48"/>
<stop offset="1" stop-color="#C4C4C4" stop-opacity="0"/>
</linearGradient>
<linearGradient id="paint15_linear_53_248" x1="5.33054" y1="576.65" x2="371.794" y2="582.996" gradientUnits="userSpaceOnUse">
<stop stop-color="#7A6DFF" stop-opacity="0.48"/>
<stop offset="1" stop-color="#C4C4C4" stop-opacity="0"/>
</linearGradient>
<linearGradient id="paint16_linear_53_248" x1="28.4933" y1="148.173" x2="555.154" y2="166.884" gradientUnits="userSpaceOnUse">
<stop stop-color="#7A6DFF" stop-opacity="0.48"/>
<stop offset="1" stop-color="#C4C4C4" stop-opacity="0"/>
</linearGradient>
<linearGradient id="paint17_linear_53_248" x1="1489.74" y1="219.643" x2="1937.54" y2="-62.2304" gradientUnits="userSpaceOnUse">
<stop stop-color="#7A6DFF" stop-opacity="0.48"/>
<stop offset="1" stop-color="#C4C4C4" stop-opacity="0"/>
</linearGradient>
<linearGradient id="paint18_linear_53_248" x1="1379.55" y1="828.231" x2="1602.62" y2="985.044" gradientUnits="userSpaceOnUse">
<stop stop-color="#7A6DFF" stop-opacity="0.48"/>
<stop offset="1" stop-color="#C4C4C4" stop-opacity="0"/>
</linearGradient>
<linearGradient id="paint19_linear_53_248" x1="15.9342" y1="397.21" x2="256.737" y2="476.94" gradientUnits="userSpaceOnUse">
<stop stop-color="#EB6DFF"/>
<stop offset="1" stop-color="#C4C4C4" stop-opacity="0"/>
</linearGradient>
<linearGradient id="paint20_linear_53_248" x1="1122.93" y1="10.2099" x2="1363.74" y2="89.9402" gradientUnits="userSpaceOnUse">
<stop stop-color="#EB6DFF"/>
<stop offset="1" stop-color="#C4C4C4" stop-opacity="0"/>
</linearGradient>
<clipPath id="clip0_53_248">
<rect width="1717" height="1308" fill="white"/>
</clipPath>
</defs>
</svg>
